<svg preserveAspectRatio="none" overflow="visible" style="display: block;" width="24" height="24" viewBox="0 0 24 24" fill="none" xmlns="http://www.w3.org/2000/svg">
<g id="Heart">
<path id="Vector" fill-rule="evenodd" clip-rule="evenodd" d="M12.509 20.86C18.78 17.154 22 13.22 22 9C22 2.998 15.251 1.11 12 5.102C8.749 1.11 2 2.998 2 9C2 13.22 5.219 17.153 11.491 20.86C11.6451 20.9511 11.8209 20.9992 12 20.9992C12.1791 20.9992 12.3549 20.9511 12.509 20.86V20.86ZM12.911 7.412C14.677 3.51 20 4.542 20 9C20 12.253 17.384 15.55 12 18.834C6.617 15.549 4 12.254 4 9C4 4.541 9.323 3.51 11.089 7.412C11.444 8.196 12.556 8.196 12.911 7.412V7.412Z" fill="#0D0D0D"/>
</g>
</svg>
