<svg preserveAspectRatio="none" overflow="visible" style="display: block;" width="24" height="24" viewBox="0 0 24 24" fill="none" xmlns="http://www.w3.org/2000/svg">
<g id="Zap">
<path id="Vector" d="M13.2251 1.02279C13.518 0.968625 13.8195 1.0024 14.0913 1.11947L14.2056 1.17513L14.3149 1.23958C14.5276 1.3777 14.7014 1.56765 14.8208 1.79134L14.8765 1.9056L14.9214 2.02474C15.0146 2.30529 15.0227 2.608 14.9439 2.89486C14.9403 2.9078 14.9372 2.92113 14.9331 2.93392L13.0132 8.95345L12.9966 9.00033H19.9995C20.377 8.99959 20.7472 9.1053 21.0669 9.30599C21.3874 9.50719 21.6438 9.79569 21.8071 10.137C21.9705 10.4784 22.0342 10.8589 21.9898 11.2347C21.9453 11.6106 21.7946 11.9662 21.5562 12.2601C21.5375 12.283 21.5181 12.3053 21.4976 12.3265L11.5972 22.5267L11.5962 22.5257C11.3775 22.7596 11.0908 22.9195 10.7749 22.9779C10.4404 23.0397 10.0945 22.986 9.79444 22.8255C9.49444 22.665 9.25779 22.4067 9.12354 22.0941C8.98945 21.7816 8.96597 21.4327 9.05616 21.1048L9.0669 21.0658L10.9868 15.0462L11.0034 15.0003H3.99952V14.9993C3.6224 14.9999 3.25257 14.8942 2.93311 14.6937C2.6128 14.4926 2.35621 14.2047 2.19288 13.8636C2.02951 13.5222 1.96585 13.1408 2.01026 12.765C2.05472 12.3892 2.20548 12.0334 2.44386 11.7396C2.46242 11.7167 2.48194 11.6943 2.50245 11.6732L12.4028 1.47396C12.6216 1.23992 12.9091 1.08124 13.2251 1.02279ZM4.00245 13.0003H10.9995C11.3221 12.9997 11.6401 13.077 11.9263 13.2259C12.2132 13.3752 12.4602 13.5913 12.645 13.8568C12.8299 14.1223 12.9474 14.4294 12.9878 14.7503C13.0261 15.0549 12.9904 15.3629 12.8901 15.6527L12.8931 15.6536L11.6265 19.6243L19.9976 11.0003H12.9995V10.9993C12.6773 10.9998 12.3596 10.9234 12.0737 10.7747C11.7867 10.6254 11.5398 10.4084 11.355 10.1429C11.1702 9.87753 11.0527 9.57113 11.0122 9.25033C10.9738 8.9453 11.0084 8.63611 11.1089 8.34603H11.1069L12.3726 4.37435L4.00245 13.0003Z" fill="#0D0D0D"/>
</g>
</svg>
